<svg id="_12" data-name="12" xmlns="http://www.w3.org/2000/svg" viewBox="0 0 139.88 30.31"><defs><style>.cls-1,.cls-2{fill:#fff;}.cls-1{fill-rule:evenodd;}</style></defs><title>icons</title><path class="cls-1" d="M120.05.15H136V11.23h3.9V30.07H116.14V11.23h3.91Zm2.37,11.08h11.15V2.29H122.42Z"/><path class="cls-2" d="M87.51,8.58A9.41,9.41,0,0,1,87.18,11c-.56,5.44-9.69,11.53-15.9,19.13,0,0,0,0,0,0C65.5,24.13,55.68,16.6,54.76,11A8.41,8.41,0,0,1,70.44,5a7.25,7.25,0,0,1,.61,1.1A8.41,8.41,0,0,1,87.51,8.58Z"/><path class="cls-2" d="M13.51,30.31H2.23A2.07,2.07,0,0,1,0,28,12,12,0,0,1,7.44,17.1a9.51,9.51,0,0,1,4.1-.91,34.57,34.57,0,0,1,5.86.27,11.42,11.42,0,0,1,8.93,7.77,14.69,14.69,0,0,1,.7,3.62,2.07,2.07,0,0,1-2.31,2.46Zm0-1.33h11c.92,0,1.19-.26,1.1-1.2a18.61,18.61,0,0,0-.35-2.34,10.6,10.6,0,0,0-8.43-7.73,36,36,0,0,0-5-.2A10.71,10.71,0,0,0,1.38,27.88c0,.85.22,1.1,1.09,1.1Z"/><path class="cls-2" d="M6.25,7.23a7.29,7.29,0,1,1,7.1,7.37A7.27,7.27,0,0,1,6.25,7.23Zm1.35,0a5.93,5.93,0,1,0,6-5.94A5.93,5.93,0,0,0,7.6,7.27Z"/></svg>