<svg xmlns="http://www.w3.org/2000/svg" viewBox="0 0 813.51 135.41"><defs><style>.cls-1{fill:#fff;}</style></defs><title>social-icon</title><g id="Graphic_Elements" data-name="Graphic Elements"><path class="cls-1" d="M439.09,42.43a13.4,13.4,0,0,0-3.18-4.88A13.19,13.19,0,0,0,431,34.37a23.38,23.38,0,0,0-7.89-1.46c-4.48-.21-5.83-.25-17.18-.25s-12.69,0-17.17.25a23.38,23.38,0,0,0-7.89,1.46,14.09,14.09,0,0,0-8.07,8.06,23.66,23.66,0,0,0-1.46,7.9c-.2,4.48-.25,5.82-.25,17.17s.05,12.69.25,17.17a23.66,23.66,0,0,0,1.46,7.9,14.09,14.09,0,0,0,8.07,8.06,23.38,23.38,0,0,0,7.89,1.46c4.48.21,5.83.25,17.17.25s12.7,0,17.18-.25a23.38,23.38,0,0,0,7.89-1.46,13.19,13.19,0,0,0,4.89-3.18,13.4,13.4,0,0,0,3.18-4.88,23.66,23.66,0,0,0,1.46-7.9c.2-4.48.25-5.82.25-17.17s-.05-12.69-.25-17.17A23.66,23.66,0,0,0,439.09,42.43ZM406,89.32A21.82,21.82,0,1,1,427.78,67.5,21.82,21.82,0,0,1,406,89.32Zm22.69-39.41a5.1,5.1,0,1,1,5.1-5.1A5.1,5.1,0,0,1,428.64,49.91Z"/><path class="cls-1" d="M406,0a67.5,67.5,0,1,0,67.5,67.5A67.51,67.51,0,0,0,406,0ZM448.2,85a31.26,31.26,0,0,1-2,10.32,21.7,21.7,0,0,1-12.43,12.43,31,31,0,0,1-10.31,2c-4.54.21-6,.26-17.53.26s-13,0-17.52-.26a31,31,0,0,1-10.31-2,21.7,21.7,0,0,1-12.43-12.43,31.26,31.26,0,0,1-2-10.32c-.21-4.53-.26-6-.26-17.52s.05-13,.26-17.52a31.26,31.26,0,0,1,2-10.32,21.7,21.7,0,0,1,12.43-12.43,31,31,0,0,1,10.31-2c4.53-.21,6-.26,17.52-.26s13,.05,17.53.26a31,31,0,0,1,10.31,2,21.7,21.7,0,0,1,12.43,12.43,31.26,31.26,0,0,1,2,10.32c.21,4.53.25,6,.25,17.52S448.41,80.49,448.2,85Z"/><circle class="cls-1" cx="405.95" cy="67.5" r="14.17"/><path class="cls-1" d="M67.5.41A67.5,67.5,0,1,0,135,67.91,67.5,67.5,0,0,0,67.5.41Zm37.31,53.06c0,.77,0,1.54,0,2.32,0,23.68-18,51-51,51a50.68,50.68,0,0,1-27.47-8.06,35.48,35.48,0,0,0,4.27.25,35.93,35.93,0,0,0,22.26-7.67A18,18,0,0,1,36.18,78.86a18,18,0,0,0,8.09-.31A17.93,17.93,0,0,1,29.89,61a1.77,1.77,0,0,1,0-.23A17.71,17.71,0,0,0,38,63a17.93,17.93,0,0,1-5.55-23.93A50.87,50.87,0,0,0,69.41,57.79,17.72,17.72,0,0,1,69,53.71a17.93,17.93,0,0,1,31-12.26,36.21,36.21,0,0,0,11.38-4.35A18,18,0,0,1,103.46,47a35.57,35.57,0,0,0,10.29-2.82A36.52,36.52,0,0,1,104.81,53.47Z"/><path class="cls-1" d="M573.81.09a67.58,67.58,0,0,0-24.63,130.5c-.61-5.34-1.12-13.57.22-19.4,1.22-5.29,7.89-33.59,7.89-33.59a24.63,24.63,0,0,1-2-10c0-9.39,5.45-16.4,12.24-16.4,5.78,0,8.56,4.34,8.56,9.51,0,5.78-3.67,14.46-5.62,22.52-1.61,6.73,3.39,12.23,10,12.23,12,0,21.24-12.68,21.24-30.91,0-16.18-11.62-27.47-28.25-27.47-19.23,0-30.52,14.4-30.52,29.3,0,5.78,2.22,12,5,15.4a2,2,0,0,1,.45,2c-.5,2.11-1.67,6.73-1.89,7.67-.28,1.22-1,1.5-2.28.89-8.45-4-13.74-16.23-13.74-26.19,0-21.29,15.46-40.86,44.65-40.86,23.41,0,41.65,16.68,41.65,39,0,23.29-14.68,42-35,42-6.84,0-13.29-3.56-15.46-7.78l-4.22,16.07c-1.5,5.89-5.62,13.23-8.4,17.73A67.62,67.62,0,1,0,573.81.09Z"/><polygon class="cls-1" points="737.01 81.2 760.39 67.7 737.01 54.2 737.01 81.2"/><path class="cls-1" d="M746,.21a67.5,67.5,0,1,0,67.5,67.5A67.5,67.5,0,0,0,746,.21Zm43.12,89.16a11.24,11.24,0,0,1-8,7.95c-7,1.89-35.16,1.89-35.16,1.89s-28.14,0-35.16-1.89a11.27,11.27,0,0,1-8-7.95C701,82.35,701,67.71,701,67.71s0-14.65,1.88-21.67a11.27,11.27,0,0,1,8-7.95c7-1.88,35.16-1.88,35.16-1.88s28.14,0,35.16,1.88a11.24,11.24,0,0,1,8,7.95c1.88,7,1.88,21.67,1.88,21.67S791,82.35,789.13,89.37Z"/><path class="cls-1" d="M301.05,68.12A67.5,67.5,0,1,0,223,134.79V87.63H205.86V68.12H223V53.24C223,36.33,233.08,27,248.5,27a103.77,103.77,0,0,1,15.11,1.32V44.91H255.1c-8.39,0-11,5.21-11,10.54V68.12h18.72l-3,19.51H244.1v47.16A67.5,67.5,0,0,0,301.05,68.12Z"/></g></svg>